<svg width="22" height="23" viewBox="0 0 22 23" fill="none" xmlns="http://www.w3.org/2000/svg">
<path fill-rule="evenodd" clip-rule="evenodd" d="M11 2.5C6.02944 2.5 2 6.52944 2 11.5C2 16.4706 6.02944 20.5 11 20.5C15.9706 20.5 20 16.4706 20 11.5C20 6.52944 15.9706 2.5 11 2.5ZM0 11.5C0 5.42487 4.92487 0.5 11 0.5C17.0751 0.5 22 5.42487 22 11.5C22 17.5751 17.0751 22.5 11 22.5C4.92487 22.5 0 17.5751 0 11.5Z" fill="#333333"/>
<path fill-rule="evenodd" clip-rule="evenodd" d="M0 11.5C0 10.9477 0.447715 10.5 1 10.5H21C21.5523 10.5 22 10.9477 22 11.5C22 12.0523 21.5523 12.5 21 12.5H1C0.447715 12.5 0 12.0523 0 11.5Z" fill="#333333"/>
<path fill-rule="evenodd" clip-rule="evenodd" d="M8.00023 11.5001C8.06877 14.5749 9.12625 17.5353 11 19.9493C12.8737 17.5353 13.9312 14.5749 13.9998 11.5001C13.9312 8.42527 12.8737 5.46495 11 3.0509C9.12625 5.46495 8.06877 8.42527 8.00023 11.5001ZM11 1.50011L10.2617 0.825684C7.59689 3.74301 6.08251 7.52896 6.00022 11.4793C5.99993 11.4932 5.99993 11.5071 6.00022 11.5209C6.08251 15.4713 7.59689 19.2572 10.2617 22.1745C10.4511 22.3819 10.7191 22.5001 11 22.5001C11.2809 22.5001 11.5489 22.3819 11.7383 22.1745C14.4031 19.2572 15.9175 15.4713 15.9998 11.5209C16.0001 11.5071 16.0001 11.4932 15.9998 11.4793C15.9175 7.52896 14.4031 3.74301 11.7383 0.825684L11 1.50011Z" fill="#333333"/>
</svg>
