<svg width="570" height="411" viewBox="0 0 570 411" fill="none" xmlns="http://www.w3.org/2000/svg">
<g clip-path="url(#clip0_4717_1154)">
<path d="M71.0153 364.791L79.8322 365.006L76.5019 392.712L70.5273 392.566L71.0153 364.791Z" fill="#FFB6B6"/>
<path d="M91.0251 405.433L91.025 405.432C91.025 404.68 90.6459 404 90.0602 403.701L83.48 400.346L78.9938 389.606L78.9259 378.786L69.6815 377.664L68.3445 384.557C68.3445 384.557 71.0973 384.133 67.6987 387.178C64.3 390.224 65.9365 396.182 65.9365 396.182L65.1953 407.319H71.3129L71.6413 400.393C76.3994 402.477 77.5664 407.319 77.5664 407.319H89.4253C90.3088 407.319 91.0251 406.474 91.0251 405.433H91.0251H91.0251Z" fill="#2F2E41"/>
<path d="M83.9302 365.096L92.7471 365.311L89.4168 393.017L83.4423 392.871L83.9302 365.096Z" fill="#FFB6B6"/>
<path d="M103.94 405.737H103.94C103.94 404.985 103.561 404.305 102.975 404.006L96.395 400.651L91.9088 389.911L91.8408 379.091L82.5964 377.969L81.2595 384.862C81.2595 384.862 84.0122 384.438 80.6136 387.483C77.2149 390.529 78.8514 396.487 78.8514 396.487L78.1102 407.624H84.2278L84.5562 400.698C89.3143 402.782 90.4813 407.624 90.4813 407.624H102.34C103.224 407.624 103.94 406.779 103.94 405.737L103.94 405.737H103.94Z" fill="#2F2E41"/>
<path d="M73.8189 202.587L63.8237 227.222C60.4919 235.433 59.436 244.439 60.7739 253.234L65.6318 374.257H84.8386L93.2222 266.486L94.8766 309.057L75.649 369.71H94.56L118.834 309.057L120.633 262.353L112.009 226.112L73.8189 202.587L73.8189 202.587Z" fill="#2F2E41"/>
<path d="M344.605 97.1764V35.643C344.605 15.9742 329.157 0.029419 310.102 0.029419H183.8C164.745 0.029094 149.298 15.9736 149.297 35.6425V373.219C149.297 392.888 164.745 408.833 183.8 408.833H310.101C329.156 408.833 344.603 392.888 344.603 373.219V140.977H344.603C345.803 140.977 346.776 139.973 346.776 138.734L346.778 99.4197C346.778 98.1808 345.805 97.1764 344.605 97.1764L344.605 97.1764V97.1764Z" fill="#3F3D56"/>
<path d="M338.125 32.6819V375.028C317.962 373.749 328.218 401.173 311.967 402.034H183.074C168.621 402.037 156.902 389.946 156.898 375.028V32.6819C156.902 17.7641 168.62 5.67369 183.072 5.6756H192.578C189.989 12.2465 210.881 14.3843 212.483 14.3864H278.495C285.367 14.3774 301.947 7.20699 301.343 5.6756H311.962C326.409 5.67815 338.12 17.7646 338.125 32.6767L338.125 32.6819H338.125Z" fill="white"/>
<path d="M148.281 104.714C147.362 104.714 146.615 105.485 146.615 106.434V120.197C146.615 121.146 147.362 121.917 148.281 121.917C149.201 121.917 149.948 121.146 149.948 120.197V106.434C149.948 105.485 149.201 104.714 148.281 104.714Z" fill="#3F3D56"/>
<path d="M148.281 146.002C147.362 146.002 146.615 146.774 146.615 147.723V174.388C146.615 175.337 147.362 176.109 148.281 176.109C149.201 176.109 149.948 175.337 149.948 174.388V147.723C149.948 146.774 149.201 146.002 148.281 146.002Z" fill="#3F3D56"/>
<path d="M148.281 183.85C147.362 183.85 146.615 184.622 146.615 185.571V212.236C146.615 213.185 147.362 213.957 148.281 213.957C149.201 213.957 149.948 213.185 149.948 212.236V185.571C149.948 184.622 149.201 183.85 148.281 183.85Z" fill="#3F3D56"/>
<path d="M541.398 387.073L533.489 392.665L508.828 363.837L520.501 355.584L541.398 387.073Z" fill="#FFB6B6"/>
<path d="M514.179 406.049C514.217 406.651 515.004 408.125 515.335 408.622C516.35 410.153 518.375 410.543 519.858 409.495L544.35 392.175C545.361 391.46 545.62 390.034 544.927 388.99L544.228 387.937C544.228 387.937 543.34 383.917 538.258 381.782C538.258 381.782 537.184 387.027 529.377 385.522L526.316 383.933L521.382 398.391L516.363 402.964C515.264 403.964 514.085 404.54 514.179 406.049L514.179 406.049L514.179 406.049Z" fill="#2F2E41"/>
<path d="M483.087 401.918L473.5 401.917L468.94 363.749L480.674 365.257L483.087 401.918Z" fill="#FFB6B6"/>
<path d="M450.242 401.694C449.943 402.213 449.786 403.887 449.786 404.491C449.786 406.346 451.242 407.849 453.039 407.849H482.728C483.954 407.849 484.948 406.824 484.948 405.558V404.282C484.948 404.282 486.417 400.448 483.393 395.721C483.393 395.721 479.635 399.422 474.019 393.626L472.363 390.529L460.376 399.578L453.732 400.422C452.278 400.607 450.99 400.394 450.242 401.694H450.242V401.694Z" fill="#2F2E41"/>
<path d="M449.475 256.867L450.196 265.867L448.761 273.025L451.375 280.571L454.573 320.469L471.239 389.256L483.965 392.021L477.856 323.311L482.595 266.636L449.475 256.867Z" fill="#2F2E41"/>
<path d="M503.552 217.792L454.883 218.49L449.475 256.865L482.594 272.913L481.538 327.72L518.423 382.834L538.069 371.248L505.15 324.444L514.368 246.399L503.552 217.792H503.552Z" fill="#2F2E41"/>
<path d="M467.524 127.573L458.938 138.948L462.994 226.164L494.764 225.467L500.172 149.414L493.413 129.877L490.967 125.499L488.041 119.83L469.288 121.213L467.525 127.573H467.524V127.573Z" fill="#E6E6E6"/>
<path d="M454.845 181.51L456.562 199.335L454.453 219.846L451.816 225.407L445.788 247.53C445.788 247.53 439.636 257.205 453.155 257.901C466.675 258.596 510.988 254.07 510.988 254.07C510.988 254.07 516.513 253.929 514.105 242C510.215 235.1 512.723 225.377 512.723 225.377L507.608 205.926L508.96 187.785L518.424 140.339C510.019 133.521 500.605 128.641 490.371 125.337L481.407 149.665L468.062 127.43L462.992 131.268C456.154 133.118 450.137 135.965 445.377 140.338L454.845 181.51Z" fill="#2F2E41"/>
<path d="M294.396 139.19H198.997C192.458 139.183 187.159 133.713 187.151 126.963V84.6359C187.159 77.8862 192.458 72.4164 198.997 72.4088C229.438 63.7034 261.365 64.5192 294.396 72.4088C300.935 72.4168 306.234 77.8865 306.241 84.6359V126.963C306.234 133.713 300.935 139.182 294.396 139.19H294.396Z" fill="#F2F2F2"/>
<path d="M304.115 183.551H189.279C188.105 183.55 187.153 182.568 187.152 181.356V151.953C187.154 150.742 188.105 149.76 189.279 149.758H304.115C305.289 149.76 306.24 150.742 306.242 151.953V181.357C306.24 182.569 305.289 183.55 304.115 183.552V183.551ZM189.279 150.636C188.574 150.637 188.003 151.226 188.003 151.953V181.357C188.003 182.084 188.574 182.673 189.279 182.674H304.115C304.82 182.673 305.39 182.084 305.391 181.357V151.953C305.39 151.226 304.82 150.637 304.115 150.636H189.279Z" fill="#E6E6E6"/>
<path d="M224.793 160.506C223.971 160.524 223.318 161.226 223.336 162.075C223.352 162.898 223.995 163.562 224.793 163.579H294.97C295.792 163.612 296.484 162.95 296.515 162.102C296.546 161.254 295.906 160.54 295.084 160.507H224.793V160.506Z" fill="#E6E6E6"/>
<path d="M224.793 169.728C223.971 169.746 223.318 170.448 223.336 171.297C223.352 172.12 223.995 172.783 224.793 172.801H294.97C295.792 172.833 296.484 172.172 296.515 171.324C296.546 170.476 295.906 169.762 295.084 169.729H224.793V169.728Z" fill="#E6E6E6"/>
<path d="M205.079 172.802C208.368 172.802 211.034 170.05 211.034 166.656C211.034 163.261 208.368 160.509 205.079 160.509C201.79 160.509 199.124 163.261 199.124 166.656C199.124 170.05 201.79 172.802 205.079 172.802Z" fill="#E6E6E6"/>
<path d="M304.115 327.873H189.279C188.105 327.872 187.153 326.89 187.152 325.678V296.276C187.154 295.064 188.105 294.082 189.279 294.081H304.115C305.289 294.082 306.24 295.064 306.242 296.276V325.679C306.24 326.891 305.289 327.873 304.115 327.874V327.873ZM189.279 294.958C188.574 294.959 188.003 295.548 188.003 296.276V325.679C188.003 326.406 188.574 326.995 189.279 326.996L291.07 325.961C291.775 325.96 302.456 321.848 302.456 321.121L305.391 296.276C305.39 295.548 304.82 294.959 304.115 294.958H189.279Z" fill="#E6E6E6"/>
<path d="M224.793 309.211C223.97 309.193 223.29 309.867 223.273 310.715C223.255 311.564 223.908 312.266 224.73 312.284C224.751 312.285 224.772 312.285 224.793 312.284H294.97C295.792 312.317 296.483 311.655 296.515 310.807C296.546 309.959 295.906 309.245 295.084 309.213H224.793V309.211V309.211Z" fill="#E6E6E6"/>
<path d="M205.079 317.124C208.368 317.124 211.034 314.372 211.034 310.978C211.034 307.583 208.368 304.831 205.079 304.831C201.79 304.831 199.124 307.583 199.124 310.978C199.124 314.372 201.79 317.124 205.079 317.124Z" fill="#E6E6E6"/>
<path d="M304.115 267.035H189.279C188.105 267.034 187.153 266.052 187.152 264.84V235.437C187.154 234.226 188.105 233.244 189.279 233.242H304.115C305.289 233.244 306.24 234.226 306.242 235.437V264.841C306.24 266.052 305.289 267.034 304.115 267.036V267.035ZM189.279 234.12C188.574 234.121 188.003 234.71 188.003 235.437V264.841C188.003 265.568 188.574 266.157 189.279 266.158L291.07 265.122C291.775 265.122 302.456 261.01 302.456 260.283L305.391 235.437C305.39 234.71 304.82 234.121 304.115 234.12H189.279Z" fill="#E6E6E6"/>
<path d="M224.793 248.373C223.97 248.355 223.29 249.028 223.273 249.877C223.255 250.726 223.908 251.428 224.73 251.446C224.751 251.446 224.772 251.446 224.793 251.446H294.97C295.792 251.478 296.483 250.817 296.515 249.969C296.546 249.121 295.906 248.407 295.084 248.374H224.793V248.373V248.373Z" fill="#E6E6E6"/>
<path d="M205.079 256.286C208.368 256.286 211.034 253.534 211.034 250.139C211.034 246.745 208.368 243.993 205.079 243.993C201.79 243.993 199.124 246.745 199.124 250.139C199.124 253.534 201.79 256.286 205.079 256.286Z" fill="#E6E6E6"/>
<path d="M476.992 119.024C486.258 119.024 493.77 111.27 493.77 101.706C493.77 92.1416 486.258 84.3882 476.992 84.3882C467.727 84.3882 460.215 92.1416 460.215 101.706C460.215 111.27 467.727 119.024 476.992 119.024Z" fill="#FFB6B6"/>
<path d="M489.315 115.935C490.239 116.097 491.324 113.785 492.36 111.534C494.531 106.82 495.91 103.823 496.015 99.5869C496.105 95.9768 495.133 96.9243 494.188 88.8979C493.876 86.2506 489.494 86.2557 488.603 84.9986C487.096 82.8752 489.407 81.9995 485.66 80.7239C478.64 78.3348 475.465 82.0463 471.007 82.366C470.895 82.3741 468.684 84.6051 467.45 84.7204C465.288 84.9226 462.168 84.5749 460.769 81.1739C459.461 77.9939 458.595 87.2864 459.764 88.4364C460.756 89.4128 462.468 91.8635 462.512 92.0417C462.561 92.2435 458.442 87.5326 457.754 89.4739C457.259 90.8711 458.817 98.0592 460.075 98.3294C461.128 98.5553 463.702 94.9745 463.121 96.4431C461.774 99.849 469.873 102.022 479.568 95.1856C479.912 94.9431 479.587 95.3298 480.786 98.3294C482.299 102.113 482.64 102.318 482.614 103.36C482.557 105.615 480.916 106.279 481.396 107.761C481.784 108.961 483.302 109.89 484.441 109.647C485.727 109.373 485.947 107.732 486.878 107.761C487.675 107.786 488.621 109.025 488.705 110.276C488.883 112.911 485.104 113.636 484.441 117.192C484.068 119.2 488.465 115.785 489.315 115.935Z" fill="#2F2E41"/>
<path d="M527.283 254.36C527.355 252.421 526.977 250.492 526.179 248.735L527.907 228.524L518.564 227.958L517.817 248.523C516.936 250.237 516.465 252.145 516.444 254.085C516.327 258.94 518.658 262.937 521.65 263.015C524.642 263.092 527.164 259.219 527.281 254.365L527.283 254.36Z" fill="#FFB6B6"/>
<path d="M507.407 172.865L514.774 196.371L516.89 244.378L529.222 244.118L530.179 191.532C530.179 191.532 524.033 152.674 521.975 143.941C519.917 135.207 500.939 138.444 500.939 138.444L507.407 172.865V172.865V172.865Z" fill="#2F2E41"/>
<path d="M201.816 111.582C205.3 112.776 208.953 113.985 212.672 113.781C214.365 113.688 215.993 113.272 217.528 112.53C219.103 111.77 220.542 110.738 222.135 110.018C227.993 107.372 233.802 111.893 239.265 113.589C241.99 114.436 244.856 114.639 247.522 113.46C250.468 112.157 252.69 109.671 255.115 107.595C260.552 102.941 267.647 100.432 274.704 100.622C282.446 100.83 289.939 104.36 295.271 110.133C295.718 110.617 296.427 109.883 295.981 109.4C291.322 104.354 285.044 100.953 278.358 99.9219C271.659 98.8889 264.704 100.269 258.813 103.713C255.832 105.456 253.441 107.841 250.815 110.068C248.257 112.235 245.414 113.633 242.043 113.172C236.234 112.378 231.238 107.758 225.214 108.177C221.367 108.445 218.619 111.432 214.999 112.385C210.68 113.521 206.166 111.981 202.083 110.582C201.468 110.371 201.205 111.372 201.816 111.582L201.816 111.582V111.582Z" fill="#3F3D56"/>
<path d="M212.722 117.108C214.777 117.108 216.443 115.388 216.443 113.267C216.443 111.145 214.777 109.425 212.722 109.425C210.666 109.425 209 111.145 209 113.267C209 115.388 210.666 117.108 212.722 117.108Z" fill="#269E96"/>
<path d="M244.847 117.278C246.902 117.278 248.568 115.558 248.568 113.437C248.568 111.315 246.902 109.595 244.847 109.595C242.791 109.595 241.125 111.315 241.125 113.437C241.125 115.558 242.791 117.278 244.847 117.278Z" fill="#269E96"/>
<path d="M277.471 104.248C279.526 104.248 281.192 102.528 281.192 100.407C281.192 98.2855 279.526 96.5657 277.471 96.5657C275.416 96.5657 273.75 98.2855 273.75 100.407C273.75 102.528 275.416 104.248 277.471 104.248Z" fill="#269E96"/>
<path d="M61.5427 233.669C50.5404 266.004 64.5584 291.479 61.6494 275.046C59.2182 261.312 100.645 219.52 113.115 228.138C112.854 226.743 104.928 201.599 104.151 201.483C105.238 198.657 103.723 198.63 103.661 197.183C103.426 191.591 104.685 185.787 107.137 179.813C108.745 175.197 108.773 171.232 107.215 168.034C105.875 165.406 103.623 163.397 100.909 162.409L92.7381 152.223C90.6095 149.571 87.4703 143.85 84.1348 143.872L66.2298 143.212C65.7181 142.894 59.4309 148.475 53.3092 151.213C46.6697 154.186 48.0394 162.3 48.0561 162.403L48.0716 162.5L48.1446 162.569L57.9038 192.219L66.7214 200.749C66.2747 202.086 66.3865 203.09 67.2231 203.666C66.0222 204.583 60.68 232.016 61.5427 232.977V233.669L61.5427 233.669Z" fill="#269E96"/>
<path d="M153.546 174.988C152.214 175.536 151.029 176.406 150.09 177.524L135.911 182.541L138.421 189.435L152.534 183.603C153.964 183.707 155.398 183.455 156.714 182.869C160.028 181.45 162.005 178.535 161.129 176.359C160.253 174.182 156.859 173.568 153.546 174.988V174.988Z" fill="#FFB6B6"/>
<path d="M77.9086 152.863L110.255 197.931L148.172 187.153L146.524 176.944L117.651 182.588L101.544 157.028C96.2838 146.533 85.9171 144.42 77.9086 152.862V152.863Z" fill="#269E96"/>
<path d="M310.23 380.121H295.469C292.891 380.121 290.793 377.956 290.793 375.295C287.995 367.448 287.642 360.408 290.793 354.528C290.793 351.867 292.891 349.702 295.469 349.702C299.834 346.434 304.923 347.426 310.23 349.702C312.808 349.702 314.905 351.867 314.905 354.528C313.114 361.181 313.244 368.123 314.905 375.295C314.905 377.956 312.808 380.121 310.23 380.121Z" fill="#269E96"/>
<path d="M308.802 358.944H296.88C296.469 358.944 296.135 358.6 296.135 358.175C296.135 357.75 296.469 357.406 296.88 357.406H308.802C309.214 357.406 309.547 357.75 309.547 358.175C309.547 358.6 309.214 358.944 308.802 358.944Z" fill="white"/>
<path d="M308.802 365.096H296.88C296.469 365.096 296.135 364.752 296.135 364.327C296.135 363.902 296.469 363.558 296.88 363.558H308.802C309.214 363.558 309.547 363.902 309.547 364.327C309.547 364.752 309.214 365.096 308.802 365.096Z" fill="white"/>
<path d="M308.802 371.248H296.88C296.469 371.248 296.135 370.904 296.135 370.479C296.135 370.054 296.469 369.71 296.88 369.71H308.802C309.214 369.71 309.547 370.054 309.547 370.479C309.547 370.904 309.214 371.248 308.802 371.248Z" fill="white"/>
<path d="M570 408.081H0V409.244H570V408.081Z" fill="#E6E6E6"/>
<path d="M444.866 252.748C445.35 257.577 448.157 261.235 451.135 260.917C454.112 260.598 456.133 256.425 455.649 251.595C455.481 249.662 454.867 247.798 453.858 246.161L451.557 225.718L442.285 227.037L445.538 247.046C444.876 248.862 444.645 250.816 444.864 252.743L444.866 252.748Z" fill="#FFB6B6"/>
<path d="M458.509 169.894L462.351 135.056C462.351 135.056 443.187 133.36 441.796 142.233C440.406 151.106 437.22 190.34 437.22 190.34L442.154 242.689L454.469 241.954L452.944 193.922L458.509 169.894V169.894Z" fill="#2F2E41"/>
<path d="M88.3064 139.375L62.4135 141.808L61.6494 114.03L89.858 113.203L88.3064 139.375Z" fill="#2F2E41"/>
<path d="M75.213 135.646C82.7178 135.646 88.8016 129.366 88.8016 121.62C88.8016 113.873 82.7178 107.594 75.213 107.594C67.7082 107.594 61.6244 113.873 61.6244 121.62C61.6244 129.366 67.7082 135.646 75.213 135.646Z" fill="#FFB6B6"/>
<path d="M86.1441 107.953C86.0484 104.473 81.8529 104.096 78.5841 103.237L75.6199 101.649C72.7104 100.884 69.6234 101.422 67.1181 103.13L59.2141 108.072C55.6651 110.491 55.1013 114.401 53.6581 118.531L51.046 124.576C49.6253 128.641 51.5027 134.027 52.9388 138.086L53.5406 139.787L52.5996 145.354L69.0711 144.56L70.5352 135.966L67.7236 132.704C66.726 131.546 66.645 129.828 67.5292 128.576H67.5292C70.7097 124.072 70.1202 117.761 70.1202 117.761L74.1453 120.028C76.79 120.4 79.1469 120.359 81.2205 119.912C83.5012 119.42 85.4393 118.436 87.0411 116.97L88.4762 121.952C88.8459 128.153 87.7233 129.799 82.3689 135.864L91.7585 141.949L91.4112 138.656C90.5851 130.823 93.1037 124.646 92.7506 118.271C92.5065 113.863 89.9666 109.935 86.1441 107.953H86.1441H86.1441Z" fill="#2F2E41"/>
<path d="M88.3932 226.223C87.0665 225.663 85.6291 225.438 84.2012 225.568L70.6271 219.006L67.7913 225.765L81.8659 231.694C82.8249 232.794 84.0251 233.641 85.3662 234.164C88.7044 235.52 92.0889 234.842 92.924 232.649C93.7591 230.455 91.7314 227.579 88.3932 226.223H88.3932Z" fill="#FFB6B6"/>
<path d="M48.8952 156.061L41.8164 211.672L76.339 231.118L82.0268 222.593L57.4637 205.943L63.0876 176.009C66.3701 164.69 60.3379 155.734 48.8956 156.061L48.8952 156.061Z" fill="#269E96"/>
</g>
<defs>
<clipPath id="clip0_4717_1154">
<rect width="570" height="410.054" fill="white" transform="translate(0 0.0294189)"/>
</clipPath>
</defs>
</svg>
